<!-- Delete -->
<svg width="18" height="19" viewBox="0 0 18 19" fill="none" xmlns="http://www.w3.org/2000/svg">
<g filter="url(#filter0_d_125_2)">
<path d="M8 3H10C10 2.73478 9.89464 2.48043 9.70711 2.29289C9.51957 2.10536 9.26522 2 9 2C8.73478 2 8.48043 2.10536 8.29289 2.29289C8.10536 2.48043 8 2.73478 8 3V3ZM7 3C7 2.46957 7.21071 1.96086 7.58579 1.58579C7.96086 1.21071 8.46957 1 9 1C9.53043 1 10.0391 1.21071 10.4142 1.58579C10.7893 1.96086 11 2.46957 11 3H13.5C13.6326 3 13.7598 3.05268 13.8536 3.14645C13.9473 3.24021 14 3.36739 14 3.5C14 3.63261 13.9473 3.75979 13.8536 3.85355C13.7598 3.94732 13.6326 4 13.5 4H13.059L12.616 9.17C12.5734 9.66923 12.345 10.1343 11.9759 10.4732C11.6069 10.8121 11.124 11.0001 10.623 11H7.377C6.87595 11.0001 6.39314 10.8121 6.02407 10.4732C5.65501 10.1343 5.42659 9.66923 5.384 9.17L4.941 4H4.5C4.36739 4 4.24021 3.94732 4.14645 3.85355C4.05268 3.75979 4 3.63261 4 3.5C4 3.36739 4.05268 3.24021 4.14645 3.14645C4.24021 3.05268 4.36739 3 4.5 3H7ZM10.5 6C10.5 5.86739 10.4473 5.74021 10.3536 5.64645C10.2598 5.55268 10.1326 5.5 10 5.5C9.86739 5.5 9.74021 5.55268 9.64645 5.64645C9.55268 5.74021 9.5 5.86739 9.5 6V8C9.5 8.13261 9.55268 8.25979 9.64645 8.35355C9.74021 8.44732 9.86739 8.5 10 8.5C10.1326 8.5 10.2598 8.44732 10.3536 8.35355C10.4473 8.25979 10.5 8.13261 10.5 8V6ZM8 5.5C7.86739 5.5 7.74021 5.55268 7.64645 5.64645C7.55268 5.74021 7.5 5.86739 7.5 6V8C7.5 8.13261 7.55268 8.25979 7.64645 8.35355C7.74021 8.44732 7.86739 8.5 8 8.5C8.13261 8.5 8.25979 8.44732 8.35355 8.35355C8.44732 8.25979 8.5 8.13261 8.5 8V6C8.5 5.86739 8.44732 5.74021 8.35355 5.64645C8.25979 5.55268 8.13261 5.5 8 5.5Z" fill="#000000"/>
</g>
<defs>
<filter id="filter0_d_125_2" x="-1" y="0" width="20" height="20" filterUnits="userSpaceOnUse" color-interpolation-filters="sRGB">
<feFlood flood-opacity="0" result="BackgroundImageFix"/>
<feColorMatrix in="SourceAlpha" type="matrix" values="0 0 0 0 0 0 0 0 0 0 0 0 0 0 0 0 0 0 127 0" result="hardAlpha"/>
<feOffset dy="4"/>
<feGaussianBlur stdDeviation="2"/>
<feComposite in2="hardAlpha" operator="out"/>
<feColorMatrix type="matrix" values="0 0 0 0 0 0 0 0 0 0 0 0 0 0 0 0 0 0 0.25 0"/>
<feBlend mode="normal" in2="BackgroundImageFix" result="effect1_dropShadow_125_2"/>
<feBlend mode="normal" in="SourceGraphic" in2="effect1_dropShadow_125_2" result="shape"/>
</filter>
</defs>
</svg>