<!-- Reduction -->
<svg width="29" height="29" viewBox="0 0 29 29" fill="none" xmlns="http://www.w3.org/2000/svg">
<path d="M19.7109 13.5938H9.28906C9.16445 13.5938 9.0625 13.6957 9.0625 13.8203V15.1797C9.0625 15.3043 9.16445 15.4062 9.28906 15.4062H19.7109C19.8355 15.4062 19.9375 15.3043 19.9375 15.1797V13.8203C19.9375 13.6957 19.8355 13.5938 19.7109 13.5938Z" fill="#000000"/>
<path d="M14.5 1.8125C7.49355 1.8125 1.8125 7.49355 1.8125 14.5C1.8125 21.5064 7.49355 27.1875 14.5 27.1875C21.5064 27.1875 27.1875 21.5064 27.1875 14.5C27.1875 7.49355 21.5064 1.8125 14.5 1.8125ZM14.5 25.0352C8.68301 25.0352 3.96484 20.317 3.96484 14.5C3.96484 8.68301 8.68301 3.96484 14.5 3.96484C20.317 3.96484 25.0352 8.68301 25.0352 14.5C25.0352 20.317 20.317 25.0352 14.5 25.0352Z" fill="#000000"/>
</svg>